# xmcd CD database file
#
# Track frame offsets:
#	150
#	11047
#	23132
#	31605
#	49470
#	60637
#	70977
#	81562
#	92805
#	107312
#	117220
#	130292
#	139527
#	149927
#	159310
#	169625
#	182380
#	192937
#	203217
#	212235
#	222997
#	235835
#
# Disc length: 3291 seconds
#
# Revision: 0
# Processed by: cddbd v1.4PL0 Copyright (c) Steve Scherf et al.
# Submitted via: CDex 1.50Beta7
#
DISCID=3e0cd916
DTITLE=Howard Roberts - Jaunty-Jolly
DYEAR=1967
DGENRE=Jazz
TTITLE0=I Will Wait For You
TTITLE1=So Nice [Summer Samba]
TTITLE2=Winchester Cathedral
TTITLE3=Sing No Blues
TTITLE4=Theme From "The Sand Pebbles" (And We Were Lovers)
TTITLE5=Man And A Woman
TTITLE6=Music To Watch Girls By
TTITLE7=All
TTITLE8=If She Walked Into My Life
TTITLE9=Face I Love
TTITLE10=Mercy, Mercy, Mercy
TTITLE11=Watch What Happens
TTITLE12=Ode To Billie Joe
TTITLE13=Triste
TTITLE14=Can't Take My Eyes Off You
TTITLE15=Look Of Love
TTITLE16=Yellow Days
TTITLE17=Walk Tall
TTITLE18=You And I [Voce E Eu]
TTITLE19=O Barquinho [Little Boat]
TTITLE20=Wait Until Dark
TTITLE21=Up, Up And Away
EXTD=YEAR: 1967
EXTT0=
EXTT1=
EXTT2=
EXTT3=
EXTT4=
EXTT5=
EXTT6=
EXTT7=
EXTT8=
EXTT9=
EXTT10=
EXTT11=
EXTT12=
EXTT13=
EXTT14=
EXTT15=
EXTT16=
EXTT17=
EXTT18=
EXTT19=
EXTT20=
EXTT21=
PLAYORDER=
